<svg width="30" height="30" viewBox="0 0 30 30" fill="none" xmlns="http://www.w3.org/2000/svg">
<path d="M26.0208 14.0417C26.3083 14.0417 26.5 13.85 26.5 13.5625C26.5 13.275 26.3083 13.0833 26.0208 13.0833H22.6667V11.1667H26.0208C26.3083 11.1667 26.5 10.975 26.5 10.6875C26.5 10.4 26.3083 10.2083 26.0208 10.2083H22.6667V8.29167C22.6667 7.71667 22.2833 7.33333 21.7083 7.33333H19.7917V3.97917C19.7917 3.69167 19.6 3.5 19.3125 3.5C19.025 3.5 18.8333 3.69167 18.8333 3.97917V7.33333H16.9167V3.97917C16.9167 3.69167 16.725 3.5 16.4375 3.5C16.15 3.5 15.9583 3.69167 15.9583 3.97917V7.33333H14.0417V3.97917C14.0417 3.69167 13.85 3.5 13.5625 3.5C13.275 3.5 13.0833 3.69167 13.0833 3.97917V7.33333H11.1667V3.97917C11.1667 3.69167 10.975 3.5 10.6875 3.5C10.4 3.5 10.2083 3.69167 10.2083 3.97917V7.33333H8.29167C7.71667 7.33333 7.33333 7.71667 7.33333 8.29167V10.2083H3.97917C3.69167 10.2083 3.5 10.4 3.5 10.6875C3.5 10.975 3.69167 11.1667 3.97917 11.1667H7.33333V13.0833H3.97917C3.69167 13.0833 3.5 13.275 3.5 13.5625C3.5 13.85 3.69167 14.0417 3.97917 14.0417H7.33333V15.9583H3.97917C3.69167 15.9583 3.5 16.15 3.5 16.4375C3.5 16.725 3.69167 16.9167 3.97917 16.9167H7.33333V18.8333H3.97917C3.69167 18.8333 3.5 19.025 3.5 19.3125C3.5 19.6 3.69167 19.7917 3.97917 19.7917H7.33333V21.7083C7.33333 22.2833 7.71667 22.6667 8.29167 22.6667H10.2083V26.0208C10.2083 26.3083 10.4 26.5 10.6875 26.5C10.975 26.5 11.1667 26.3083 11.1667 26.0208V22.6667H13.0833V26.0208C13.0833 26.3083 13.275 26.5 13.5625 26.5C13.85 26.5 14.0417 26.3083 14.0417 26.0208V22.6667H15.9583V26.0208C15.9583 26.3083 16.15 26.5 16.4375 26.5C16.725 26.5 16.9167 26.3083 16.9167 26.0208V22.6667H18.8333V26.0208C18.8333 26.3083 19.025 26.5 19.3125 26.5C19.6 26.5 19.7917 26.3083 19.7917 26.0208V22.6667H21.7083C22.2833 22.6667 22.6667 22.2833 22.6667 21.7083V19.7917H26.0208C26.3083 19.7917 26.5 19.6 26.5 19.3125C26.5 19.025 26.3083 18.8333 26.0208 18.8333H22.6667V16.9167H26.0208C26.3083 16.9167 26.5 16.725 26.5 16.4375C26.5 16.15 26.3083 15.9583 26.0208 15.9583H22.6667V14.0417H26.0208ZM20.75 20.75H9.25V9.25H20.75V20.75Z" fill="white"/>
</svg>
