<svg width="30" height="30" viewBox="0 0 30 30" fill="none" xmlns="http://www.w3.org/2000/svg">
<path d="M25.5417 14.0545H24.5833V7.92119C24.5833 7.44202 24.2 7.34619 23.625 7.34619H16.3417L19.1208 4.37536C19.3125 4.18369 19.4083 3.99202 19.025 3.70452C18.7375 3.41702 18.45 3.70452 18.2583 3.89619L15 7.34619L11.6458 3.80036C11.4542 3.60869 11.0708 3.32119 10.7833 3.60869C10.4958 3.89619 10.5917 4.18369 10.7833 4.37536L13.6583 7.34619H6.375C5.8 7.34619 5.41667 7.44202 5.41667 7.92119V14.0545H4.45833C3.88333 14.0545 3.5 14.1504 3.5 14.6295V18.4629C3.5 19.0379 3.88333 19.8045 4.45833 19.8045H5.41667V25.1712C5.41667 25.7462 5.8 26.5129 6.375 26.5129H23.625C24.2 26.5129 24.5833 25.7462 24.5833 25.1712V19.8045H25.5417C26.1167 19.8045 26.5 19.0379 26.5 18.4629V14.6295C26.5 14.1504 26.1167 14.0545 25.5417 14.0545ZM4.45833 18.8462V15.0129H6.375V18.8462H4.45833ZM22.6667 24.5962H7.33333V9.26286H22.6667V24.5962ZM25.5417 18.8462H23.625V15.0129H25.5417V18.8462Z" fill="white"/>
<path d="M18.8333 11.7545C17.7792 11.7545 16.9167 12.617 16.9167 13.6712C16.9167 14.7253 17.7792 15.5878 18.8333 15.5878C19.8875 15.5878 20.75 14.7253 20.75 13.6712C20.75 12.617 19.8875 11.7545 18.8333 11.7545ZM18.8333 14.6295C18.2583 14.6295 17.875 14.2462 17.875 13.6712C17.875 13.0962 18.2583 12.7128 18.8333 12.7128C19.4083 12.7128 19.7917 13.0962 19.7917 13.6712C19.7917 14.2462 19.4083 14.6295 18.8333 14.6295Z" fill="white"/>
<path d="M11.1667 15.5878C12.2208 15.5878 13.0833 14.7253 13.0833 13.6712C13.0833 12.617 12.2208 11.7545 11.1667 11.7545C10.1125 11.7545 9.25 12.617 9.25 13.6712C9.25 14.7253 10.1125 15.5878 11.1667 15.5878ZM11.1667 12.7128C11.7417 12.7128 12.125 13.0962 12.125 13.6712C12.125 14.2462 11.7417 14.6295 11.1667 14.6295C10.5917 14.6295 10.2083 14.2462 10.2083 13.6712C10.2083 13.0962 10.5917 12.7128 11.1667 12.7128Z" fill="white"/>
<path d="M19.7917 19.8049C19.7917 19.2299 19.4083 18.8466 18.8333 18.8466H11.1667C10.5917 18.8466 10.2083 19.2299 10.2083 19.8049V21.7216C10.2083 22.2966 10.5917 22.6799 11.1667 22.6799H18.8333C19.4083 22.6799 19.7917 22.2966 19.7917 21.7216V19.8049ZM11.1667 21.3382V19.4216H13.0833V21.3382H11.1667ZM14.0417 21.3382V19.4216H15.9583V21.3382H14.0417ZM18.8333 21.3382H16.9167V19.4216H18.8333V21.3382Z" fill="white"/>
</svg>
