<svg width="30" height="30" viewBox="0 0 30 30" fill="none" xmlns="http://www.w3.org/2000/svg">
<path d="M26.1423 12H24.6423C24.4423 11.4 24.2423 10.9 23.9423 10.4L24.9423 9.4C25.3423 9 25.3423 8.4 24.9423 8L22.1423 5.2C21.7423 4.8 21.1423 4.8 20.7423 5.2L19.6423 6.2C19.1423 5.9 19.0423 5.6 18.0423 5.5V4C18.0423 3.4 17.6423 3 17.1423 3H13.1423C12.5423 3 12.0423 3.4 12.0423 4V5.5C11.0423 5.6 10.9423 5.9 10.4423 6.1L9.4423 5.1C9.0423 4.7 8.4423 4.7 8.0423 5.1L5.1423 7.9C4.7423 8.3 4.7423 8.9 5.1423 9.3L6.1423 10.3C5.9423 10.9 5.7423 11.4 5.5423 12H4.1423C3.5423 12 3.0423 12.4 3.0423 13V17C3.0423 17.6 3.5423 18 4.1423 18H5.6423C5.8423 18.6 6.0423 19.1 6.3423 19.6L5.3423 20.6C4.9423 21 4.9423 21.6 5.3423 22L8.0423 24.9C8.4423 25.3 9.0423 25.3 9.4423 24.9L10.4423 23.9C10.9423 24.1 11.0423 24.4 12.0423 24.5V26C12.0423 26.6 12.5423 27 13.1423 27H17.1423C17.7423 27 18.0423 26.6 18.0423 26V24.5C19.0423 24.3 19.1423 24.1 19.6423 23.8L20.6423 24.8C21.0423 25.2 21.6423 25.2 22.0423 24.8L24.8423 22C25.2423 21.6 25.2423 21 24.8423 20.6L23.8423 19.6C24.1423 19.1 24.3423 18.5 24.5423 18H26.0423C26.6423 18 26.9423 17.6 26.9423 17V13C27.0423 12.4 26.6423 12 26.1423 12ZM25.0423 16H23.0423C22.9423 16.7 22.7423 17.4 22.5423 18V18.1C22.2423 18.7 21.9423 19.3 21.4423 19.9L22.8423 21.3C22.6423 21.6 22.4423 22 22.1423 22C21.9423 22 21.6423 22.5 21.4423 22.7L20.0423 21.3C19.5423 21.7 18.9423 22.1 18.2423 22.4H18.1423C17.5423 22.7 17.1423 22.8 16.1423 22.9V24.9C16.1423 24.9 15.4423 25 15.1423 25C14.8423 25 14.1423 25 14.1423 24.9V22.9C13.1423 22.8 12.8423 22.6 12.1423 22.4H12.0423C11.4423 22.1 10.8423 21.8 10.2423 21.3L8.8423 22.7C8.5423 22.5 8.3423 22.3 8.1423 22C7.9423 21.8 7.6423 21.5 7.4423 21.3L8.8423 19.9C8.4423 19.4 8.0423 18.8 7.7423 18.1V18C7.4423 17.4 7.3423 16.7 7.2423 16H5.2423C5.2423 15.7 5.1423 15.3 5.1423 15C5.1423 14.7 5.1423 14.3 5.2423 14H7.2423C7.3423 13.3 7.5423 12.6 7.7423 12V11.9C8.0423 11.2 8.3423 10.6 8.7423 10.1L7.3423 8.7C7.5423 8.4 7.7423 8.2 8.0423 7.9C8.2423 7.7 8.5423 7.4 8.7423 7.2L10.1423 8.6C10.6423 8.2 11.2423 7.8 11.9423 7.5H12.0423C12.6423 7.2 13.0423 7.1 14.0423 7V5C14.0423 5 14.7423 5 15.0423 5C15.3423 5 16.0423 5 16.0423 5.1V7.1C17.0423 7.2 17.4423 7.4 18.0423 7.6H18.1423C18.7423 7.9 19.3423 8.2 19.9423 8.7L21.3423 7.3C21.6423 7.5 21.8423 7.7 22.0423 8C22.2423 8.2 22.5423 8.5 22.7423 8.7L21.3423 10.1C21.7423 10.6 22.1423 11.2 22.4423 11.9V12C22.7423 12.6 22.8423 13.3 22.9423 14H24.9423C24.9423 14.3 25.0423 14.7 25.0423 15C25.0423 15.3 25.0423 15.7 25.0423 16Z" fill="white"/>
<path d="M15.1423 11C12.9423 11 11.1423 12.8 11.1423 15C11.1423 17.2 12.9423 19 15.1423 19C17.3423 19 19.1423 17.2 19.1423 15C19.1423 12.8 17.3423 11 15.1423 11ZM15.1423 18C13.4423 18 12.1423 16.7 12.1423 15C12.1423 13.3 13.4423 12 15.1423 12C16.8423 12 18.1423 13.3 18.1423 15C18.1423 16.7 16.7423 18 15.1423 18Z" fill="white"/>
</svg>
