<svg width="16" height="12" viewBox="0 0 16 12" fill="none" xmlns="http://www.w3.org/2000/svg">
<path d="M10.6426 5.45209H3.55218V2.64631H10.6426C11.0568 2.64631 11.3448 2.71851 11.4893 2.84456C11.6338 2.97064 11.7234 3.20445 11.7234 3.54602V4.55347C11.7234 4.91335 11.6338 5.14716 11.4893 5.27324C11.3448 5.39929 11.0568 5.45318 10.6426 5.45318V5.45209ZM11.1291 0.00107297H0.545166V12H3.55218V8.09626H9.09384L11.7234 12H15.0906L12.1915 8.07795C13.2603 7.91955 13.7403 7.59198 14.1361 7.05216C14.5319 6.51235 14.7304 5.64927 14.7304 4.49744V3.59775C14.7304 2.9146 14.6581 2.37478 14.5319 1.96104C14.4057 1.54727 14.1901 1.1874 13.8837 0.864145C13.5601 0.558145 13.1999 0.342636 12.7674 0.198255C12.3349 0.0722001 11.7945 0 11.1291 0V0.00107297Z" fill="white"/>
</svg>
