<svg width="16" height="12" viewBox="0 0 16 12" fill="none" xmlns="http://www.w3.org/2000/svg">
<path d="M14.112 0.105971C12.1964 0.899354 3.98264 4.30159 1.71318 5.22886C0.191186 5.82281 1.08218 6.3797 1.08218 6.3797C1.08218 6.3797 2.38139 6.82512 3.49518 7.15923C4.60881 7.49333 5.20276 7.12217 5.20276 7.12217L10.437 3.59555C12.2931 2.33339 11.8476 3.37276 11.4021 3.81833C10.437 4.78359 8.8407 6.30544 7.50428 7.53054C6.91034 8.05023 7.20723 8.49565 7.46723 8.71843C8.43233 9.53517 11.0681 11.2057 11.2165 11.317C12.0007 11.8722 13.5432 12.6713 13.7779 10.9829L14.7059 5.15475C15.003 3.18733 15.2999 1.36828 15.3369 0.8486C15.4484 -0.413713 14.112 0.105971 14.112 0.105971Z" fill="white"/>
</svg>
