<svg width="21" height="12" viewBox="0 0 21 12" fill="none" xmlns="http://www.w3.org/2000/svg">
<path fill-rule="evenodd" clip-rule="evenodd" d="M20.0788 0.812326C20.2182 0.34251 20.0788 0 19.4089 0H17.1993C16.6385 0 16.3779 0.297044 16.2384 0.624399C16.2384 0.624399 15.1139 3.36449 13.5226 5.14372C13.0073 5.659 12.7739 5.82268 12.492 5.82268C12.3526 5.82268 12.1495 5.659 12.1495 5.18919V0.812326C12.1495 0.251578 11.9858 0 11.5191 0H8.04545C7.69385 0 7.48167 0.260672 7.48167 0.509219C7.48167 1.04269 8.27885 1.16393 8.36068 2.66431V5.91968C8.36068 6.63198 8.23035 6.76231 7.95149 6.76231C7.20282 6.76231 5.38114 4.0101 4.29905 0.860823C4.08688 0.248547 3.8747 0.00303033 3.31092 0.00303033H1.10127C0.470811 0.00303033 0.343506 0.300075 0.343506 0.627431C0.343506 1.21243 1.09218 4.11619 3.83227 7.95656C5.66 10.5784 8.23035 12 10.5734 12C11.9768 12 12.1526 11.6848 12.1526 11.1392V9.15686C12.1526 8.5264 12.2859 8.39909 12.7315 8.39909C13.0588 8.39909 13.6226 8.56277 14.932 9.82673C16.4294 11.3241 16.6779 11.997 17.5206 11.997H19.7302C20.3607 11.997 20.6759 11.6817 20.4941 11.0573C20.294 10.436 19.5787 9.53574 18.6299 8.46577C18.1147 7.85653 17.3417 7.20182 17.1084 6.87446C16.781 6.45315 16.875 6.26522 17.1084 5.8924C17.1053 5.8924 19.7969 2.10053 20.0788 0.812326Z" fill="white"/>
</svg>
