<svg width="25" height="25" viewBox="0 0 25 25" fill="none" xmlns="http://www.w3.org/2000/svg">
<path opacity="0.5" d="M24.7349 23.4333L18.9352 17.6334H18.8728C20.6604 15.5255 21.5638 12.8081 21.3939 10.0495C21.224 7.29087 19.9941 4.70479 17.9614 2.8322C15.9287 0.959622 13.2507 -0.0544013 10.4876 0.00225226C7.72447 0.0589059 5.09027 1.18185 3.13603 3.13618C1.18179 5.0905 0.0589031 7.72483 0.00225216 10.4881C-0.0543988 13.2513 0.959577 15.9295 2.83207 17.9623C4.70457 19.9951 7.29053 21.225 10.049 21.3949C12.8075 21.5648 15.5248 20.6614 17.6326 18.8737C17.6326 18.8737 17.6326 18.9183 17.6326 18.9361L23.4322 24.7361C23.5152 24.8197 23.6138 24.8861 23.7226 24.9314C23.8313 24.9767 23.9479 25 24.0657 25C24.1835 25 24.3001 24.9767 24.4089 24.9314C24.5176 24.8861 24.6163 24.8197 24.6992 24.7361C24.7907 24.6551 24.8646 24.5561 24.9162 24.4454C24.9679 24.3347 24.9963 24.2146 24.9997 24.0924C25.003 23.9703 24.9812 23.8488 24.9357 23.7354C24.8902 23.622 24.8218 23.5192 24.7349 23.4333ZM10.7176 19.6054C8.95286 19.6054 7.22777 19.082 5.76047 18.1016C4.29316 17.1211 3.14953 15.7275 2.47421 14.0971C1.79888 12.4666 1.62218 10.6725 1.96646 8.94159C2.31074 7.21071 3.16053 5.62079 4.40837 4.37289C5.65621 3.12499 7.24606 2.27516 8.97687 1.93086C10.7077 1.58657 12.5017 1.76327 14.1321 2.43863C15.7625 3.11399 17.156 4.25767 18.1364 5.72504C19.1168 7.19242 19.6401 8.91758 19.6401 10.6824C19.6401 11.8542 19.4093 13.0145 18.9609 14.0971C18.5125 15.1796 17.8553 16.1633 17.0268 16.9919C16.1982 17.8204 15.2146 18.4777 14.1321 18.9261C13.0496 19.3746 11.8893 19.6054 10.7176 19.6054Z" fill="white"/>
</svg>
